<?xml version="1.0" encoding="UTF-8"?>
<svg width="22px" height="22px" viewBox="0 0 22 22" version="1.1" xmlns="http://www.w3.org/2000/svg" xmlns:xlink="http://www.w3.org/1999/xlink">
    <!-- Generator: Sketch 58 (84663) - https://sketch.com -->
    <title>vuesax/bold/driving</title>
    <desc>Created with Sketch.</desc>
    <g id="Bold" stroke="none" stroke-width="1" fill="none" fill-rule="evenodd">
        <g id="Car" transform="translate(-365.000000, -189.000000)">
            <g id="vuesax/bold/driving" transform="translate(364.000000, 188.000000)">
                <g id="driving">
                    <g>
                        <path d="M24,0 L24,24 L0,24 L0,0 L24,0 Z" id="Vector" opacity="0"></path>
                        <path d="M11.25,18 L11.25,17 C11.25,16.59 11.59,16.25 12,16.25 C12.41,16.25 12.75,16.59 12.75,17 L12.75,18 C12.75,18.41 12.41,18.75 12,18.75 C11.59,18.75 11.25,18.41 11.25,18 Z" id="Vector" fill="#292D32" fill-rule="nonzero"></path>
                        <path d="M11.25,22 L11.25,21 C11.25,20.59 11.59,20.25 12,20.25 C12.41,20.25 12.75,20.59 12.75,21 L12.75,22 C12.75,22.41 12.41,22.75 12,22.75 C11.59,22.75 11.25,22.41 11.25,22 Z" id="Vector" fill="#292D32" fill-rule="nonzero"></path>
                        <path d="M1.81814438,22.7281437 C1.41814438,22.6281437 1.16814433,22.2181439 1.26814433,21.8181438 L2.26814437,17.8181436 C2.36814437,17.4181436 2.76814446,17.1681444 3.17814445,17.2681444 C3.57814446,17.3681444 3.82814441,17.7781442 3.72814441,18.1781442 L2.72814441,22.1781445 C2.6381444,22.5181445 2.33814433,22.7481441 1.99814433,22.7481441 C1.93814433,22.7481441 1.87814438,22.7381437 1.81814438,22.7281437 Z" id="Vector" fill="#292D32" fill-rule="nonzero"></path>
                        <path d="M21.0226318,21.9326315 L20.0226317,17.9326316 C19.9226317,17.5326316 20.162631,17.1226317 20.572631,17.0226317 C20.972631,16.9226317 21.3826308,17.162631 21.4826308,17.572631 L22.4826307,21.5726309 C22.5826307,21.9726309 22.3426316,22.3826307 21.9326316,22.4826307 C21.8726316,22.4926307 21.8126313,22.5026312 21.7526313,22.5026312 C21.4126313,22.5026312 21.1126318,22.2726315 21.0226318,21.9326315 Z" id="Vector" fill="#292D32" fill-rule="nonzero"></path>
                        <path d="M18.5982819,5.84000015 L5.52828169,5.84000015 C5.22828168,5.84000015 4.98828125,5.59000018 4.98828125,5.30000019 C4.98828125,5 5.2382817,4.76000023 5.52828169,4.76000023 L6.26828146,4.76000023 L6.54828167,3.45000005 C6.80828166,2.17000008 7.34828162,1 9.50828171,1 L14.5982819,1 C16.7582819,1 17.3082812,2.17000008 17.5682812,3.44000006 L17.8482819,4.75 L18.5882816,4.75 C18.8882816,4.75 19.1382809,5 19.1382809,5.30000019 C19.1382809,5.6000002 18.8882819,5.84000015 18.5982819,5.84000015 Z" id="Vector" fill="#292D32" fill-rule="nonzero"></path>
                        <path d="M16.6881914,6.9296875 L7.42819071,6.9296875 C5.09819078,6.9296875 4.78819098,8.20968723 4.66819099,9.39968729 L4.25819112,13.8196874 C4.20819112,14.3696874 4.38819087,14.9196874 4.76819086,15.3396873 C5.15819085,15.7596873 5.69819111,15.9996872 6.27819109,15.9996872 L7.63819075,15.9996872 C8.81819069,15.9996872 9.03819045,15.3296878 9.18819046,14.8796878 L9.33819103,14.4396873 C9.50819103,13.9396873 9.54819071,13.8196874 10.1981907,13.8196874 L13.918191,13.8196874 C14.5681909,13.8196874 14.5881906,13.8896872 14.7781906,14.4396873 L14.9281912,14.8796878 C15.0681912,15.3296878 15.2981902,15.9996872 16.4681902,15.9996872 L17.8281908,15.9996872 C18.3981908,15.9996872 18.948191,15.7596873 19.338191,15.3396873 C19.718191,14.9296875 19.8981913,14.3696874 19.8481913,13.8196874 L19.4481916,9.39968729 C19.3381916,8.19968724 19.0181913,6.9296875 16.6881914,6.9296875 Z M7.70819092,10.9196877 C7.40819091,10.9196877 7.16819096,10.6696878 7.16819096,10.3796878 C7.16819096,10.0896878 7.41819093,9.83968782 7.70819092,9.83968782 L9.88819122,9.83968782 C10.1881912,9.83968782 10.4281912,10.0896878 10.4281912,10.3796878 C10.4281912,10.6696878 10.178191,10.9196877 9.87819099,10.9196877 L7.70819092,10.9196877 Z M14.2281904,10.9196877 C13.9281904,10.9196877 13.6881905,10.6696878 13.6881905,10.3796878 C13.6881905,10.0896878 13.9381904,9.83968782 14.2281904,9.83968782 L16.4081907,9.83968782 C16.7081907,9.83968782 16.9481916,10.0896878 16.9481916,10.3796878 C16.9481916,10.6696878 16.7081907,10.9196877 16.4081907,10.9196877 L14.2281904,10.9196877 Z" id="Vector" fill="#292D32"></path>
                    </g>
                </g>
            </g>
        </g>
    </g>
</svg>