<svg width="24" height="24" viewBox="0 0 24 24" fill="none" xmlns="http://www.w3.org/2000/svg">
<path d="M15.4 9.87904L10.811 5.29304C10.6206 5.12088 10.3713 5.02853 10.1147 5.03512C9.85805 5.04171 9.61379 5.14673 9.43247 5.32844C9.25115 5.51014 9.14665 5.75462 9.14061 6.01124C9.13456 6.26787 9.22744 6.517 9.4 6.70704L13.986 11.293C14.1735 11.4806 14.2788 11.7349 14.2788 12C14.2788 12.2652 14.1735 12.5195 13.986 12.707L9.4 17.293C9.21249 17.4807 9.10721 17.7351 9.1073 18.0004C9.10739 18.2657 9.21286 18.52 9.4005 18.7075C9.58814 18.895 9.84259 19.0003 10.1079 19.0002C10.3731 19.0001 10.6275 18.8947 10.815 18.707L15.4 14.121C15.9624 13.5585 16.2784 12.7955 16.2784 12C16.2784 11.2045 15.9624 10.4416 15.4 9.87904Z" fill="#FCFCFE"/>
</svg>
