<?xml version="1.0" encoding="UTF-8"?>
<svg width="13px" height="24px" viewBox="0 0 13 24" version="1.1" xmlns="http://www.w3.org/2000/svg" xmlns:xlink="http://www.w3.org/1999/xlink">
    <!-- Generator: Sketch 58 (84663) - https://sketch.com -->
    <title>Group</title>
    <desc>Created with Sketch.</desc>
    <g id="Page-1" stroke="none" stroke-width="1" fill="none" fill-rule="evenodd">
        <g id="Group" fill="#FFFFFF" fill-rule="nonzero">
            <path d="M11.172,23.9999 C10.9068,23.9999 10.6525,23.8945 10.465,23.7069 L2.29303,15.5349 C1.35568,14.5973 0.8291,13.3257 0.8291,11.9999 C0.8291,10.6741 1.35568,9.40256 2.29303,8.46492 L10.465,0.292919 C10.6536,0.110761 10.9062,0.00996641 11.1684,0.0122069984 C11.4306,0.0145233 11.6814,0.119692 11.8669,0.3051 C12.0523,0.490508 12.1574,0.741321 12.1597,1.00352 C12.162,1.26571 12.0612,1.51832 11.879,1.70692 L3.70703,9.87892 C3.14462,10.4415 2.82867,11.2044 2.82867,11.9999 C2.82867,12.7954 3.14462,13.5583 3.70703,14.1209 L11.879,22.2929 C12.0188,22.4328 12.1141,22.6109 12.1526,22.8049 C12.1912,22.9988 12.1714,23.1999 12.0957,23.3826 C12.02,23.5653 11.8919,23.7214 11.7275,23.8313 C11.5631,23.9412 11.3698,23.9999 11.172,23.9999 Z" id="Path"></path>
        </g>
    </g>
</svg>