<?xml version="1.0" encoding="UTF-8"?>
<svg width="20px" height="20px" viewBox="0 0 20 20" version="1.1" xmlns="http://www.w3.org/2000/svg" xmlns:xlink="http://www.w3.org/1999/xlink">
    <!-- Generator: Sketch 58 (84663) - https://sketch.com -->
    <title>Path</title>
    <desc>Created with Sketch.</desc>
    <g id="Page-1" stroke="none" stroke-width="1" fill="none" fill-rule="evenodd">
        <path d="M11.8909531,9.97663841 L19.6296967,2.18128322 C19.8698983,1.93855884 20.0028163,1.61343853 20,1.2759874 C19.9968033,0.93853164 19.8581889,0.615726447 19.6135566,0.377101019 C19.3690826,0.138473893 19.0383701,0.00311783367 18.6926253,-4.54747351e-12 C18.3468804,-0.00274698089 18.0137944,0.126978927 17.7652062,0.361421853 L10.0264627,8.15679249 L2.23484448,0.361421853 C1.98614554,0.126978927 1.65305954,-0.00274698089 1.3073131,-4.54747351e-12 C0.961571416,0.00311783367 0.630843124,0.138473893 0.386357999,0.377101019 C0.141873347,0.615726447 0.00319437468,0.93853164 -1.00044417e-11,1.2759874 C-0.00281441769,1.61343853 0.130096186,1.93855884 0.3702955,2.18128322 L8.16186151,9.97663841 L0.386357999,17.7566181 C0.139152802,17.9980143 0.000280688648,18.3252814 0.000280688648,18.6666029 C0.000280688648,19.0079244 0.139152802,19.3351915 0.386357999,19.5764332 C0.633637566,19.8178293 0.968975261,19.9532768 1.31862853,19.9532768 C1.66828339,19.9532768 2.00361634,19.8178293 2.25090698,19.5764332 L10.0264627,11.7964534 L17.7490662,19.5764332 C17.9962302,19.8178293 18.3316898,19.9532768 18.6812323,19.9532768 C19.030933,19.9532768 19.3662343,19.8178293 19.6135566,19.5764332 C19.8607207,19.3351915 19.9996516,19.0079244 19.9996516,18.6666029 C19.9996516,18.3252814 19.8607207,17.9980143 19.6135566,17.7566181 L11.8909531,9.97663841 Z" id="Path" fill="#FCFCFE" fill-rule="nonzero"></path>
    </g>
</svg>