<?xml version="1.0" encoding="UTF-8"?>
<svg width="22px" height="20px" viewBox="0 0 22 20" version="1.1" xmlns="http://www.w3.org/2000/svg" xmlns:xlink="http://www.w3.org/1999/xlink">
    <!-- Generator: Sketch 58 (84663) - https://sketch.com -->
    <title>vuesax/bold/home</title>
    <desc>Created with Sketch.</desc>
    <g id="Bold" stroke="none" stroke-width="1" fill="none" fill-rule="evenodd">
        <g id="Essetional" transform="translate(-557.000000, -190.000000)">
            <g id="vuesax/bold/home" transform="translate(556.000000, 188.000000)">
                <g id="home">
                    <g>
                        <path d="M14.2799625,2.77001834 C12.9999626,1.75001836 10.9999623,1.74001837 9.72996235,2.76001835 L3.17996299,8.01001883 C2.239963,8.76001883 1.66996291,10.2600178 1.86996291,11.4400177 L3.12996304,18.9800186 C3.41996303,20.6700187 4.98996258,22.0000191 6.69996262,22.0000191 L17.299962,22.0000191 C18.9899621,22.0000191 20.5899629,20.6400183 20.8799629,18.9700184 L22.1399632,11.4300184 C22.3199632,10.2600185 21.7499637,8.76001883 20.8299637,8.01001883 L14.2799625,2.77001834 Z M11.9999628,18.7500191 C11.5899628,18.7500191 11.2499628,18.4100191 11.2499628,18.0000191 L11.2499628,15.0000181 C11.2499628,14.5900181 11.5899628,14.2500181 11.9999628,14.2500181 C12.4099628,14.2500181 12.7499628,14.5900181 12.7499628,15.0000181 L12.7499628,18.0000191 C12.7499628,18.4100191 12.4099628,18.7500191 11.9999628,18.7500191 Z" id="Vector" fill="#292D32"></path>
                        <path d="M24,0 L24,24 L0,24 L0,0 L24,0 Z" id="Vector" opacity="0" transform="translate(12.000000, 12.000000) rotate(-180.000000) translate(-12.000000, -12.000000) "></path>
                    </g>
                </g>
            </g>
        </g>
    </g>
</svg>