<?xml version="1.0" encoding="UTF-8"?>
<svg width="20px" height="20px" viewBox="0 0 20 20" version="1.1" xmlns="http://www.w3.org/2000/svg" xmlns:xlink="http://www.w3.org/1999/xlink">
    <!-- Generator: Sketch 58 (84663) - https://sketch.com -->
    <title>vuesax/bold/message-question</title>
    <desc>Created with Sketch.</desc>
    <g id="Bold" stroke="none" stroke-width="1" fill="none" fill-rule="evenodd">
        <g id="Support,-Like,-Question" transform="translate(-622.000000, -254.000000)">
            <g id="vuesax/bold/message-question" transform="translate(620.000000, 252.000000)">
                <g id="message-question">
                    <g>
                        <path d="M24,0 L24,24 L0,24 L0,0 L24,0 Z" id="Vector" opacity="0"></path>
                        <path d="M7,2.4296875 C4,2.4296875 2,4.4296875 2,7.4296875 L2,13.4296875 C2,16.4296875 4,18.4296875 7,18.4296875 L7,20.5596867 C7,21.3596867 7.89000016,21.8396866 8.55000019,21.3896866 L13,18.4296875 L17,18.4296875 C20,18.4296875 22,16.4296875 22,13.4296875 L22,7.4296875 C22,4.4296875 20,2.4296875 17,2.4296875 L7,2.4296875 Z M11.25,13.8496876 C11.25,13.4396876 11.58,13.0996876 12,13.0996876 C12.42,13.0996876 12.75,13.4396876 12.75,13.8496876 C12.75,14.2596876 12.42,14.5996876 12,14.5996876 C11.58,14.5996876 11.25,14.2596876 11.25,13.8496876 Z M12.75,11.159687 L12.75,11.3696871 C12.75,11.7796871 12.41,12.1196871 12,12.1196871 C11.59,12.1196871 11.25,11.7796871 11.25,11.3696871 L11.25,11.159687 C11.25,9.99968708 12.1000001,9.4296875 12.4200001,9.20968723 C12.7900001,8.95968723 12.9099998,8.78968692 12.9099998,8.52968693 C12.9099998,8.02968693 12.5,7.61968708 12,7.61968708 C11.5,7.61968708 11.0900002,8.02968693 11.0900002,8.52968693 C11.0900002,8.93968692 10.7500001,9.27968693 10.3400002,9.27968693 C9.93000016,9.27968693 9.59000015,8.93968692 9.59000015,8.52968693 C9.59000015,7.19968688 10.67,6.11968732 12,6.11968732 C13.33,6.11968732 14.4099998,7.19968688 14.4099998,8.52968693 C14.4099998,9.66968691 13.5700002,10.239687 13.2600002,10.449687 C12.8700002,10.709687 12.75,10.879687 12.75,11.159687 Z" id="Vector" fill="#292D32"></path>
                    </g>
                </g>
            </g>
        </g>
    </g>
</svg>