<?xml version="1.0" encoding="UTF-8"?>
<svg width="20px" height="20px" viewBox="0 0 20 20" version="1.1" xmlns="http://www.w3.org/2000/svg" xmlns:xlink="http://www.w3.org/1999/xlink">
    <!-- Generator: Sketch 58 (84663) - https://sketch.com -->
    <title>vuesax/bold/user-octagon</title>
    <desc>Created with Sketch.</desc>
    <g id="Bold" stroke="none" stroke-width="1" fill="none" fill-rule="evenodd">
        <g id="Users" transform="translate(-622.000000, -190.000000)">
            <g id="vuesax/bold/user-octagon" transform="translate(620.000000, 188.000000)">
                <g id="user-octagon">
                    <g>
                        <path d="M24,0 L24,24 L0,24 L0,0 L24,0 Z" id="Vector" opacity="0"></path>
                        <path d="M13.5718746,2.42000002 C12.6018746,1.86000001 11.401875,1.86000001 10.421875,2.42000002 L4.49187469,5.8499999 C3.52187467,6.40999991 2.921875,7.44999993 2.921875,8.57999992 L2.921875,15.4200001 C2.921875,16.5400001 3.52187467,17.5799996 4.49187469,18.1499996 L10.4318752,21.5799999 C11.4018753,22.1399999 12.6018748,22.1399999 13.5818748,21.5799999 L19.5218754,18.1499996 C20.4918754,17.5899996 21.0918751,16.5500001 21.0918751,15.4200001 L21.0918751,8.57999992 C21.0818751,7.44999993 20.4818752,6.4199999 19.5118752,5.8499999 L13.5718746,2.42000002 Z M14.3318748,9.67000008 C14.3318748,10.96 13.2918749,12 12.0018749,12 C10.711875,12 9.671875,10.96 9.671875,9.67000008 C9.671875,8.3900001 10.711875,7.34000015 12.0018749,7.34000015 C13.2918749,7.34000015 14.3318748,8.38000011 14.3318748,9.67000008 Z M9.32187462,16.6599998 C8.51187462,16.6599998 8.04187471,15.7600002 8.49187469,15.0900002 C9.1718747,14.0800002 10.4918749,13.3999996 12.0018749,13.3999996 C13.5118749,13.3999996 14.8318751,14.0800002 15.5118752,15.0900002 C15.9618751,15.7500002 15.4818752,16.6599998 14.6818752,16.6599998 L9.32187462,16.6599998 Z" id="Vector" fill="#292D32"></path>
                    </g>
                </g>
            </g>
        </g>
    </g>
</svg>