<?xml version="1.0" encoding="UTF-8"?>
<svg width="20px" height="20px" viewBox="0 0 20 20" version="1.1" xmlns="http://www.w3.org/2000/svg" xmlns:xlink="http://www.w3.org/1999/xlink">
    <!-- Generator: Sketch 58 (84663) - https://sketch.com -->
    <title>Group</title>
    <desc>Created with Sketch.</desc>
    <g id="Page-1" stroke="none" stroke-width="1" fill="none" fill-rule="evenodd">
        <g id="Group" fill="#F7931A" fill-rule="nonzero">
            <path d="M9.26831,10.4467 C9.03615,10.2143 8.76048,10.03 8.45706,9.90431 C8.15364,9.77857 7.82842,9.71385 7.49998,9.71385 C7.17154,9.71385 6.84632,9.77857 6.5429,9.90431 C6.23948,10.03 5.96381,10.2143 5.73165,10.4467 L0.0316467,16.1467 C0.108697,17.1917 0.577403,18.1692 1.34404,18.8836 C2.11068,19.598 3.11874,19.9967 4.16665,20 L15.8333,20 C16.6497,19.9998 17.4479,19.7583 18.1275,19.3058 L9.26831,10.4467 Z" id="Path"></path>
            <path d="M15,6.66667 C15.9205,6.66667 16.6667,5.92048 16.6667,5 C16.6667,4.07953 15.9205,3.33334 15,3.33334 C14.0795,3.33334 13.3333,4.07953 13.3333,5 C13.3333,5.92048 14.0795,6.66667 15,6.66667 Z" id="Path"></path>
            <path d="M15.8333,0 L4.16667,0 C3.062,0.00132321 2.00296,0.440735 1.22185,1.22185 C0.440735,2.00296 0.00132321,3.062 0,4.16667 L0,13.8217 L4.55333,9.26833 C4.94026,8.88131 5.39964,8.57429 5.90523,8.36483 C6.41083,8.15537 6.95273,8.04756 7.5,8.04756 C8.04727,8.04756 8.58917,8.15537 9.09477,8.36483 C9.60036,8.57429 10.0597,8.88131 10.4467,9.26833 L19.3058,18.1275 C19.7583,17.4479 20,16.6498 20,15.8333 L20,4.16667 C19.9987,3.062 19.5593,2.00296 18.7782,1.22185 C17.997,0.440735 16.938,0.00132321 15.8333,0 L15.8333,0 Z M15,8.33333 C14.3407,8.33333 13.6963,8.13784 13.1481,7.77157 C12.5999,7.40529 12.1727,6.8847 11.9204,6.27561 C11.6681,5.66652 11.6021,4.9963 11.7307,4.3497 C11.8593,3.7031 12.1768,3.10915 12.643,2.64298 C13.1092,2.1768 13.7031,1.85933 14.3497,1.73072 C14.9963,1.6021 15.6665,1.66811 16.2756,1.9204 C16.8847,2.17269 17.4053,2.59994 17.7716,3.1481 C18.1378,3.69626 18.3333,4.34073 18.3333,5 C18.3333,5.88406 17.9821,6.7319 17.357,7.35702 C16.7319,7.98214 15.8841,8.33333 15,8.33333 Z" id="Shape"></path>
        </g>
    </g>
</svg>