<?xml version="1.0" encoding="UTF-8"?>
<svg width="18px" height="24px" viewBox="0 0 18 24" version="1.1" xmlns="http://www.w3.org/2000/svg" xmlns:xlink="http://www.w3.org/1999/xlink">
    <!-- Generator: Sketch 58 (84663) - https://sketch.com -->
    <title>ic_profile</title>
    <desc>Created with Sketch.</desc>
    <g id="Page-1" stroke="none" stroke-width="1" fill="none" fill-rule="evenodd">
        <g id="ic_profile" fill-rule="nonzero">
            <path d="M9,12 C12.3137,12 15,9.31371 15,6 C15,2.68629 12.3137,0 9,0 C5.68629,0 3,2.68629 3,6 C3,9.31371 5.68629,12 9,12 Z" id="Path" fill="#FFFDFD"></path>
            <path d="M9,14 C6.61386,14.0026 4.32622,14.9517 2.63896,16.639 C0.95171,18.3262 0.00265,20.6139 0,23 C0,23.2652 0.10536,23.5196 0.29289,23.7071 C0.48043,23.8946 0.73478,24 1,24 L17,24 C17.2652,24 17.5196,23.8946 17.7071,23.7071 C17.8946,23.5196 18,23.2652 18,23 C17.9974,20.6139 17.0483,18.3262 15.361,16.639 C13.6738,14.9517 11.3861,14.0026 9,14 Z" id="Path" fill="#FFFFFF"></path>
        </g>
    </g>
</svg>