<?xml version="1.0" encoding="UTF-8"?>
<svg width="20px" height="20px" viewBox="0 0 20 20" version="1.1" xmlns="http://www.w3.org/2000/svg" xmlns:xlink="http://www.w3.org/1999/xlink">
    <!-- Generator: Sketch 58 (84663) - https://sketch.com -->
    <title>vuesax/bold/key-square</title>
    <desc>Created with Sketch.</desc>
    <g id="Bold" stroke="none" stroke-width="1" fill="none" fill-rule="evenodd">
        <g id="Security" transform="translate(-750.000000, -190.000000)">
            <g id="vuesax/bold/key-square" transform="translate(748.000000, 188.000000)">
                <g id="Vector">
                    <path d="M13.25,12 C12.559644,12 12,11.440356 12,10.75 C12,10.059644 12.559644,9.5 13.25,9.5 C13.940356,9.5 14.5,10.059644 14.5,10.75 C14.5,11.440356 13.940356,12 13.25,12 Z" fill="#292D32"></path>
                    <path d="M7.80999994,2 C4.16999984,2 2,4.16999984 2,7.80999994 L2,16.1800003 C2,19.8300004 4.16999984,22 7.80999994,22 L16.1800003,22 C19.8200004,22 21.9900341,19.8300006 21.9900341,16.1900005 L21.9900341,7.80999994 C22,4.16999984 19.8300006,2 16.1900005,2 L7.80999994,2 Z M12.0900002,14.3999996 L11.0299997,15.4499998 C10.9399997,15.5399998 10.7800003,15.5399998 10.6800003,15.4499998 L9.71000004,14.4799995 C9.57000004,14.3399995 9.33000031,14.3399995 9.18000031,14.4799995 C9.0300003,14.6199995 9.0400003,14.8600002 9.18000031,15.0100002 L10.1499996,15.9799995 C10.2499996,16.0799995 10.2499996,16.2399999 10.1499996,16.3299999 L9.73999977,16.7399998 C9.56999977,16.9199998 9.23999999,17.03 9,17 L7.90999985,16.8500004 C7.54999983,16.8000004 7.21999985,16.4600004 7.15999985,16.1000004 L7.01000023,15.0100002 C6.97000023,14.7700002 7.09,14.4400005 7.25,14.2700005 L9.60000038,11.9200001 C9.20000038,10.6200001 9.50999999,9.14999986 10.54,8.11999989 C12.01,6.64999986 14.4100003,6.64999986 15.8900003,8.11999989 C17.3700004,9.58999991 17.3700004,11.9900002 15.8900003,13.4700003 C14.8600004,14.4900002 13.3900001,14.8099996 12.0900002,14.3999996 Z" fill="#292D32"></path>
                    <path d="M24,0 L24,24 L0,24 L0,0 L24,0 Z" opacity="0" transform="translate(12.000000, 12.000000) rotate(-180.000000) translate(-12.000000, -12.000000) "></path>
                </g>
            </g>
        </g>
    </g>
</svg>