<?xml version="1.0" encoding="UTF-8"?>
<svg width="21px" height="20px" viewBox="0 0 21 20" version="1.1" xmlns="http://www.w3.org/2000/svg" xmlns:xlink="http://www.w3.org/1999/xlink">
    <!-- Generator: Sketch 58 (84663) - https://sketch.com -->
    <title>vuesax/bold/setting-2</title>
    <desc>Created with Sketch.</desc>
    <g id="Bold" stroke="none" stroke-width="1" fill="none" fill-rule="evenodd">
        <g id="Settings" transform="translate(-302.000000, -192.000000)">
            <g id="vuesax/bold/setting-2" transform="translate(300.000000, 190.000000)">
                <g id="setting-2">
                    <g>
                        <path d="M18.4500008,6.37140131 C18.9700007,5.46140128 18.66,4.30140126 17.75,3.78140128 L16.0200005,2.7914013 C15.2300004,2.3214013 14.2099998,2.60140139 13.7399998,3.39140141 L13.6300001,3.58140123 C12.7300001,5.15140128 11.2500002,5.15140128 10.3400002,3.58140123 L10.2299995,3.39140141 C9.77999955,2.60140139 8.75999981,2.3214013 7.96999979,2.7914013 L6.23999977,3.78140128 C5.32999974,4.30140126 5.01999998,5.47140151 5.53999996,6.38140154 C6.44999999,7.94140148 5.71000004,9.22140169 3.9000001,9.22140169 C2.86000013,9.22140169 2,10.0714009 2,11.1214008 L2,12.8814011 C2,13.921401 2.85000014,14.7814007 3.9000001,14.7814007 C5.71000004,14.7814007 6.44999999,16.0614001 5.53999996,17.6314001 C5.01999998,18.5414001 5.32999974,19.7014012 6.23999977,20.2214012 L7.96999979,21.211401 C8.75999981,21.681401 9.78,21.4014025 10.25,20.6114025 L10.3599997,20.421402 C11.2599996,18.8514019 12.7399996,18.8514019 13.6499996,20.421402 L13.7600002,20.6114025 C14.2300002,21.4014025 15.2500009,21.681401 16.0400009,21.211401 L17.7700005,20.2214012 C18.6800005,19.7014012 18.9899993,18.5314001 18.4699993,17.6314001 C17.5599993,16.0614001 18.3000007,14.7814007 20.1100006,14.7814007 C21.1500006,14.7814007 22.0100002,13.931401 22.0100002,12.8814011 L22.0100002,11.1214008 C22,10.0814009 21.1500003,9.22140169 20.1000004,9.22140169 C18.2900004,9.22140169 17.5500008,7.94140136 18.4500008,6.37140131 Z M8.75,12.0014009 C8.75,10.211401 10.21,8.75140142 12,8.75140142 C13.79,8.75140142 15.25,10.211401 15.25,12.0014009 C15.25,13.7914009 13.79,15.2514009 12,15.2514009 C10.21,15.2514009 8.75,13.7914009 8.75,12.0014009 Z" id="Vector" fill="#292D32"></path>
                        <path d="M24,0 L24,24 L0,24 L0,0 L24,0 Z" id="Vector" opacity="0" transform="translate(12.000000, 12.000000) rotate(-180.000000) translate(-12.000000, -12.000000) "></path>
                    </g>
                </g>
            </g>
        </g>
    </g>
</svg>