<?xml version="1.0" encoding="UTF-8"?>
<svg width="24px" height="24px" viewBox="0 0 24 24" version="1.1" xmlns="http://www.w3.org/2000/svg" xmlns:xlink="http://www.w3.org/1999/xlink">
    <!-- Generator: Sketch 58 (84663) - https://sketch.com -->
    <title>Group 7</title>
    <desc>Created with Sketch.</desc>
    <g id="Page-1" stroke="none" stroke-width="1" fill="none" fill-rule="evenodd">
        <g id="Group-7" fill="#FFFFFF" fill-rule="nonzero">
            <path d="M5,5 L19,5 C20.3256,5.00159 21.5964,5.52888 22.5338,6.46622 C23.4086133,7.34107067 23.9262711,8.5064456 23.9927049,9.73569447 L24,10 L24,19 C23.9984,20.3256 23.4711,21.5964 22.5338,22.5338 C21.6588933,23.4086133 20.4935582,23.9262711 19.2643068,23.9927049 L19,24 L5,24 C3.67441,23.9984 2.40356,23.4711 1.46622,22.5338 C0.5913712,21.6588933 0.0737161625,20.4935582 0.00729271872,19.2643068 L0,19 L0,10 C0.00158786,8.67441 0.528882,7.40356 1.46622,6.46622 C2.34107067,5.59136933 3.5064456,5.07371778 4.73569447,5.00729307 L5,5 L19,5 Z M16.9436093,15 C16.5221323,15 16.14142,15.2771067 15.9783883,15.7028285 C15.3052198,17.4589864 13.7223941,18.6966411 11.8771677,18.6966411 C10.8601231,18.6966411 9.92772912,18.3149381 9.1801887,17.6818503 L9.76612348,17.5825869 C9.96623356,17.5486152 10.1219196,17.3747201 10.149096,17.1549499 C10.1762455,16.9353565 10.0681587,16.7222451 9.88360104,16.6314378 L6.6615517,15.0441662 C6.52028803,14.9747496 6.35669125,14.9880377 6.22648651,15.07967 C6.09655085,15.1714202 6.01757773,15.3288745 6.0167436,15.4982616 L6,19.3857985 C5.99887711,19.6069534 6.13050794,19.8025339 6.32354138,19.8670006 C6.5168708,19.9314673 6.72575267,19.849617 6.83757968,19.6654979 L7.28168574,18.9346494 C8.46571744,20.2110194 10.0882046,21 11.8771408,21 C14.5896992,21 16.9217605,19.1861815 17.9163913,16.6081615 C18.0546144,16.250825 18.0197963,15.8416912 17.8242336,15.5183854 C17.628617,15.1949617 17.2979793,15 16.9436093,15 Z M12.1228535,8 C9.41034624,8 7.07820191,9.81383906 6.08354328,12.3918464 C5.94540073,12.7491812 5.9802189,13.1583424 6.17580873,13.4816172 C6.37139855,13.8050098 6.70200967,14 7.05640692,14 C7.4778843,14 7.85859698,13.7228947 8.02162887,13.2971749 C8.69477107,11.5410256 10.2775984,10.303377 12.1228535,10.303377 C13.1398721,10.303377 14.0722671,10.6850782 14.8197813,11.3181628 L14.2338728,11.4174847 C14.0337357,11.4514562 13.8780495,11.625321 13.8509268,11.8450607 C13.8237504,12.0646825 13.9318643,12.2777633 14.1164221,12.3685702 L17.3384746,13.955834 C17.4797115,14.0252798 17.6433353,14.0119328 17.7735133,13.9203304 C17.903476,13.8285807 17.9824223,13.6711271 17.9832833,13.5017113 L18,9.61419361 C18.0011229,9.39303971 17.869465,9.19746024 17.6764583,9.13299385 C17.4831287,9.06852746 17.2742735,9.15034792 17.1624195,9.33443658 L16.718313,10.0652815 C15.5342533,8.78897668 13.9117914,8 12.1228535,8 Z" id="Combined-Shape"></path>
            <path d="M17.7211,3 L16.3081,1.168 C16.0266,0.805806 15.6664,0.512417 15.2547,0.310054 C14.8431,0.107691 14.3908,0.00166304 13.9321,0 L10.0681,0 C9.60935,0.00166304 9.15704,0.107691 8.74539,0.310054 C8.33373,0.512417 7.97352,0.805806 7.69205,1.168 L6.27905,3 L17.7211,3 Z" id="Path"></path>
        </g>
    </g>
</svg>